<?xml version="1.0" encoding="UTF-8"?>
<svg width="22px" height="24px" viewBox="0 0 22 24" version="1.1" xmlns="http://www.w3.org/2000/svg" xmlns:xlink="http://www.w3.org/1999/xlink">
    <title>Path</title>
    <g id="Components" stroke="none" stroke-width="1" fill="none" fill-rule="evenodd">
        <g id="Suit/Spade" transform="translate(-1.000000, 0.000000)" fill="#000000" fill-rule="nonzero">
            <path d="M12.4286993,0.123153362 C12.1636782,-0.0410511207 11.8361305,-0.0410511207 11.5712051,0.123153362 C9.54186259,1.38056545 1,7.06052572 1,13.5814149 C1,16.9705721 3.70078658,19.7179627 7.03228891,19.7179627 C8.12277606,19.7179627 9.1447134,19.4228607 10.0266829,18.9075247 C10.2795619,18.759731 10.5752727,19.0209433 10.4760332,19.3016737 C10.0054583,20.6329827 9.33917692,21.8680607 8.5117987,22.9694251 C8.19581939,23.3900838 8.49927426,24 9.01688758,24 L15.0469775,24 C15.5647821,24 15.8675677,23.3897924 15.5513972,22.9689396 C14.7333884,21.8800046 14.0730346,20.6605605 13.6035114,19.3465362 C13.5037938,19.0674566 13.7952979,18.8057587 14.0490374,18.9492799 C14.9135109,19.4383975 15.9080092,19.7179627 16.9677111,19.7179627 C20.299309,19.7179627 23,16.9705721 23,13.5814149 C23,7.06052572 14.4581374,1.38056545 12.4286993,0.123153362 Z" id="Path"></path>
        </g>
    </g>
</svg>
